<svg xmlns="http://www.w3.org/2000/svg" viewBox="0 0 32 32"><g data-name="Layer 2 copy"><path d="M29,31.9978H3a3.0033,3.0033,0,0,1-3-3v-22H32v22A3.0033,3.0033,0,0,1,29,31.9978Zm-27-23v20a1.0013,1.0013,0,0,0,1,1H29a1.0013,1.0013,0,0,0,1-1v-20Z"/><rect width="32.14" height="2" x="-.07" y="1.498" transform="rotate(-5.351 16 2.498)"/><rect width="30" height="2" x="1" y="11.998"/><rect width="7.071" height="2" x="-.035" y="9.498" transform="rotate(-45 3.5 10.498)"/><rect width="7.071" height="2" x="5.965" y="9.498" transform="rotate(-45 9.5 10.498)"/><rect width="7.071" height="2" x="11.964" y="9.498" transform="rotate(-45 15.5 10.498)"/><rect width="7.071" height="2" x="17.965" y="9.498" transform="rotate(-45 21.5 10.498)"/><rect width="7.071" height="2" x="23.965" y="9.498" transform="rotate(-45 27.5 10.498)"/></g></svg>