<svg xmlns="http://www.w3.org/2000/svg" width="37" height="60"><path fill-rule="evenodd" d="M10.855 55.46c-3.947 0-7.105-3.157-7.105-7.302s3.158-7.303 7.105-7.303c3.948 0 7.106 3.158 7.106 7.303s-3.158 7.303-7.106 7.303M27.83 8.487c-2.566-2.566-4.737-5.132-6.118-7.5V.789a.424.424 0 0 0-.395-.394L20.92 0h-1.38c-.197 0-.197 0-.394.197-.198 0-.395.198-.395.198l-.395.394c0 .198-.197.198-.197.395v38.487c-1.974-1.579-4.342-2.566-7.105-2.566C4.934 37.105 0 42.04 0 48.355c0 6.119 4.934 11.25 11.053 11.25 6.118 0 11.052-4.934 11.052-11.25V7.895c.987 1.184 1.974 2.17 2.96 3.355 3.948 4.342 8.29 8.684 7.698 13.026-.197 2.763-2.566 5.527-6.513 8.487-.987.592-1.184 1.776-.395 2.763.395.592.987.79 1.58.79.394 0 .789-.198 1.183-.395 5.132-3.553 7.698-7.303 8.093-11.25.394-6.316-4.343-11.25-8.882-16.184"/></svg>