<svg xmlns="http://www.w3.org/2000/svg" enable-background="new 0 0 50 50" viewBox="0 0 50 50"><path d="M29.7,9.8c0.2-0.2,0.5-0.3,0.9-0.3c0.3,0,0.6,0,0.9,0.1c0.1,0,0.2,0.1,0.2,0.2c0.1,0.1,0.1,0.2,0.1,0.3v0
		c0,0.1,0,0.1-0.1,0.2c-0.1,0-0.1,0-0.2,0c-0.3-0.1-0.5-0.2-0.8-0.2c-0.2,0-0.3,0-0.4,0.1c-0.1,0.1-0.1,0.2-0.1,0.3
		c0,0.3,0.2,0.4,0.5,0.5c0.5,0.2,0.8,0.3,1,0.5c0.2,0.2,0.3,0.4,0.3,0.8c0,0.7-0.5,1.1-1.4,1.1c-0.3,0-0.5,0-0.8-0.1
		c-0.1,0-0.2-0.1-0.2-0.2c0-0.1-0.1-0.2-0.1-0.3v-0.1c0-0.1,0-0.1,0.1-0.1c0.1,0,0.1,0,0.2,0c0.2,0.1,0.5,0.2,0.7,0.2
		c0.4,0,0.7-0.2,0.7-0.5c0-0.1,0-0.3-0.1-0.3c-0.1-0.1-0.2-0.2-0.4-0.2c-0.4-0.1-0.7-0.3-0.9-0.5c-0.2-0.2-0.3-0.4-0.3-0.7
		C29.4,10.3,29.5,10,29.7,9.8z M24.9,9.7c0.1-0.1,0.1-0.1,0.2-0.1h0.2c0.1,0,0.2,0,0.2,0.1c0.1,0.1,0.1,0.1,0.1,0.2l0.4,2.8
		c0,0,0,0,0,0c0,0,0,0,0,0l0.4-2.8c0-0.1,0.1-0.2,0.1-0.2c0.1-0.1,0.1-0.1,0.2-0.1h0.3c0.1,0,0.2,0,0.2,0.1c0.1,0.1,0.1,0.1,0.1,0.2
		l0.4,2.8c0,0,0,0,0,0s0,0,0,0l0.4-2.8c0-0.1,0.1-0.2,0.1-0.2c0.1-0.1,0.1-0.1,0.2-0.1h0.1c0.1,0,0.1,0,0.2,0.1
		C29,9.7,29,9.8,29,9.9l-0.7,3.3c0,0.1-0.1,0.2-0.1,0.2c-0.1,0.1-0.1,0.1-0.2,0.1h-0.3c-0.1,0-0.2,0-0.2-0.1
		c-0.1-0.1-0.1-0.1-0.1-0.2l-0.4-2.8c0,0,0,0,0,0c0,0,0,0,0,0l-0.4,2.8c0,0.1-0.1,0.2-0.1,0.2c-0.1,0.1-0.1,0.1-0.2,0.1h-0.3
		c-0.1,0-0.2,0-0.2-0.1c-0.1-0.1-0.1-0.1-0.1-0.2l-0.7-3.3C24.8,9.8,24.8,9.7,24.9,9.7z M21.8,9.9c0-0.1,0-0.2,0.1-0.2
		C22,9.6,22,9.6,22.1,9.6h1.8c0.1,0,0.2,0,0.2,0.1c0.1,0.1,0.1,0.1,0.1,0.2c0,0.1,0,0.2-0.1,0.2c-0.1,0.1-0.1,0.1-0.2,0.1h-1.3
		c0,0,0,0,0,0v0.9c0,0,0,0,0,0h1.2c0.1,0,0.1,0,0.2,0.1c0.1,0.1,0.1,0.1,0.1,0.2c0,0.1,0,0.1-0.1,0.2c-0.1,0.1-0.1,0.1-0.2,0.1h-1.2
		c0,0,0,0,0,0v1.1c0,0,0,0,0,0h1.3c0.1,0,0.2,0,0.2,0.1c0.1,0.1,0.1,0.1,0.1,0.2c0,0.1,0,0.2-0.1,0.2c-0.1,0.1-0.1,0.1-0.2,0.1h-1.8
		c-0.1,0-0.2,0-0.2-0.1c-0.1-0.1-0.1-0.1-0.1-0.2V9.9z M18.1,9.9c0-0.1,0-0.2,0.1-0.2c0.1-0.1,0.1-0.1,0.2-0.1h0.1
		c0.2,0,0.3,0.1,0.4,0.3l1.3,2.4c0,0,0,0,0,0s0,0,0,0V9.9c0-0.1,0-0.2,0.1-0.2c0.1-0.1,0.1-0.1,0.2-0.1h0.1c0.1,0,0.2,0,0.2,0.1
		C21,9.7,21,9.8,21,9.9v3.3c0,0.1,0,0.2-0.1,0.2c-0.1,0.1-0.1,0.1-0.2,0.1h-0.1c-0.2,0-0.3-0.1-0.4-0.3l-1.3-2.4c0,0,0,0,0,0
		s0,0,0,0v2.3c0,0.1,0,0.2-0.1,0.2c-0.1,0.1-0.1,0.1-0.2,0.1h-0.1c-0.1,0-0.2,0-0.2-0.1c-0.1-0.1-0.1-0.1-0.1-0.2V9.9z"/><path d="M43.4,1H6.6c-0.5,0-1,0.5-1,1v46c0,0.5,0.5,1,1,1h36.8c0.6,0,1-0.5,1-1V2C44.4,1.5,43.9,1,43.4,1z M21.3,43.2h-9.9
		c-0.6,0-1-0.4-1-1s0.4-1,1-1h9.9c0.6,0,1,0.4,1,1S21.8,43.2,21.3,43.2z M21.3,38.5h-9.9c-0.6,0-1-0.4-1-1s0.4-1,1-1h9.9
		c0.6,0,1,0.4,1,1S21.8,38.5,21.3,38.5z M21.3,33.7h-9.9c-0.6,0-1-0.4-1-1s0.4-1,1-1h9.9c0.6,0,1,0.4,1,1S21.8,33.7,21.3,33.7z
		 M39.7,43.1c0,0.6-0.4,1-1,1H25.6c-0.6,0-1-0.4-1-1V31.8c0-0.6,0.4-1,1-1h13.1c0.6,0,1,0.4,1,1V43.1z M38.7,28.1H11.3
		c-0.6,0-1-0.4-1-1s0.4-1,1-1h27.4c0.6,0,1,0.4,1,1S39.2,28.1,38.7,28.1z M38.7,22.5H11.3c-0.6,0-1-0.4-1-1s0.4-1,1-1h27.4
		c0.6,0,1,0.4,1,1S39.2,22.5,38.7,22.5z M39.7,16.3c0,0.6-0.4,1-1,1H11.3c-0.6,0-1-0.4-1-1V6.8c0-0.6,0.4-1,1-1h27.4
		c0.6,0,1,0.4,1,1V16.3z"/></svg>