<?xml version="1.0" standalone="no"?>
<!DOCTYPE svg PUBLIC "-//W3C//DTD SVG 20010904//EN"
 "http://www.w3.org/TR/2001/REC-SVG-20010904/DTD/svg10.dtd">
<svg version="1.0" xmlns="http://www.w3.org/2000/svg"
 width="256.000000pt" height="256.000000pt" viewBox="0 0 256.000000 256.000000"
 preserveAspectRatio="xMidYMid meet">

<g transform="translate(0.000000,256.000000) scale(0.100000,-0.100000)"
fill="#000000" stroke="none">
<path d="M320 2387 c-49 -16 -133 -102 -148 -153 -9 -31 -12 -284 -12 -1033
l0 -992 25 -24 c32 -33 78 -33 110 0 l25 24 0 502 0 501 23 -6 c12 -3 228 -6
480 -6 l457 0 0 -21 c0 -81 78 -184 156 -207 58 -17 750 -17 808 0 54 16 128
90 144 144 17 58 17 830 0 888 -16 54 -90 128 -144 144 -29 8 -134 12 -343 12
-272 0 -301 2 -301 16 0 77 -88 189 -166 212 -55 16 -1062 15 -1114 -1z m1095
-172 l25 -24 0 -391 0 -391 -25 -24 -24 -25 -511 0 -511 0 -24 25 -25 24 0
391 0 391 25 24 24 25 511 0 511 0 24 -25z m791 -223 c31 -21 34 -54 34 -432
0 -378 -3 -411 -34 -432 -14 -10 -718 -10 -732 0 -16 10 -34 48 -34 70 0 12
11 24 30 32 42 17 104 90 118 138 8 26 12 137 12 336 l0 296 298 0 c163 0 302
-4 308 -8z"/>
</g>
</svg>
