<svg xmlns="http://www.w3.org/2000/svg" width="512" height="512" enable-background="new 0 0 512 512" viewBox="0 0 512 512"><path d="M424.783,461.985c-0.004,0-0.007,0-0.011,0l-44.426-0.067H187.164c-13.4,0-44.808-9.829-44.808-28.891V209.588
				c0-13.437,13.399-20.555,31.943-30.406c30.843-16.384,77.453-41.144,95.798-111.217c8.46-32.157,22.463-38.905,32.721-38.905
				c8.266,0,16.498,4.396,23.809,12.712c10.465,11.905,16.597,29.317,14.913,42.345c-6.452,49.873-14.113,77.177-14.909,79.938
				l-2.643,11.172h113.567c22.736,0,41.233,18.5,41.233,41.239c0,10.896-4.296,21.016-11.463,28.51
				c15.402,5.997,26.343,20.964,26.343,38.435c0,16.87-10.201,31.407-24.769,37.788c7.624,7.538,12.211,17.964,12.211,29.303
				c0,17.808-11.35,33.015-27.196,38.771c7.559,7.48,12.248,17.855,12.248,29.305C466.163,441.7,446.827,461.985,424.783,461.985z
				 M302.818,43.463c-7.232,0-14.081,10.264-18.789,28.158c-19.943,76.174-71.918,103.784-102.973,120.281
				c-12.495,6.638-24.297,12.907-24.297,17.686v223.439c0,5.552,18.754,14.488,30.405,14.488h193.193l44.435,0.067
				c14.115-0.006,26.969-13.829,26.969-29.008c0-14.801-12.041-26.842-26.842-26.842c-3.978,0-7.201-3.224-7.201-7.201
				s3.224-7.201,7.201-7.201h14.948c14.801,0,26.842-12.036,26.842-26.831c0-12.387-8.424-23.103-20.485-26.059
				c-3.539-0.867-5.872-4.24-5.436-7.857s3.506-6.338,7.149-6.338h4.42c14.838,0,26.909-12.039,26.909-26.837
				c0-14.795-12.071-26.832-26.909-26.832h-6.1c-3.616,0-6.672-2.682-7.141-6.268c-0.469-3.587,1.795-6.964,5.29-7.894
				c11.764-3.127,19.979-13.799,19.979-25.951c0-14.798-12.036-26.837-26.831-26.837H314.885c-2.201,0-4.282-1.007-5.648-2.733
				c-1.365-1.727-1.866-3.982-1.359-6.125l4.779-20.207c0.029-0.125,0.062-0.249,0.098-0.372
				c0.079-0.268,7.996-27.634,14.502-77.922c1.154-8.929-3.767-22.251-11.446-30.987C311.441,46.313,306.707,43.463,302.818,43.463z
				"/><path d="M129.831,483.878H46.186c-14.843,0-26.918-11.129-26.918-24.81V179.197c0-13.681,12.075-24.81,26.918-24.81h83.645
				c14.849,0,26.929,11.129,26.929,24.81v279.871C156.759,472.749,144.679,483.878,129.831,483.878z M46.186,168.79
				c-6.784,0-12.515,4.767-12.515,10.407v279.871c0,5.641,5.731,10.407,12.515,10.407h83.645c6.79,0,12.525-4.767,12.525-10.407
				V179.197c0-5.641-5.736-10.407-12.525-10.407H46.186z"/><path d="M88.008,268.994c-1.843,0-3.686-0.703-5.092-2.108L50.36,234.33c-2.812-2.813-2.813-7.372-0.001-10.185l32.556-32.567
				c1.351-1.351,3.183-2.109,5.093-2.109c1.91-0.001,3.742,0.758,5.093,2.109l32.567,32.567c1.351,1.351,2.109,3.183,2.109,5.093
				c0,1.91-0.759,3.742-2.11,5.092L93.1,266.886C91.694,268.292,89.851,268.994,88.008,268.994z M65.636,229.236l22.374,22.373
				l22.38-22.373l-22.38-22.381L65.636,229.236z"/></svg>