<?xml version="1.0" encoding="UTF-8"?>
<svg xmlns="http://www.w3.org/2000/svg" xmlns:xlink="http://www.w3.org/1999/xlink" width="256pt" height="256pt" viewBox="0 0 256 256" version="1.1">
<g id="surface1">
<path style=" stroke:none;fill-rule:nonzero;fill:rgb(0%,0%,0%);fill-opacity:1;" d="M 85.882812 254.304688 C 66.875 254.304688 48.445312 244.09375 38.789062 226.179688 C 25.671875 201.757812 33.734375 171.03125 57.152344 156.210938 C 57.292969 156.125 57.433594 156.039062 57.574219 155.96875 C 59.46875 154.988281 61.3125 153.976562 63.164062 152.929688 C 61.796875 152.144531 60.433594 151.371094 59.050781 150.597656 C 44.664062 142.292969 35.832031 130.609375 33.4375 116.769531 C 30.304688 98.257812 30.3125 74.863281 58.40625 57.964844 C 80.007812 45.054688 102.140625 32.414062 123.550781 20.1875 C 130.652344 16.132812 137.757812 12.074219 144.867188 8 C 159.699219 -0.453125 178.015625 -0.792969 193.859375 7.074219 C 209.855469 15.015625 220.75 29.980469 223.007812 47.109375 C 226.285156 68.9375 215.367188 90.789062 195.816406 101.382812 C 194.554688 102.097656 193.328125 102.800781 192.125 103.492188 C 193.277344 104.179688 194.417969 104.851562 195.574219 105.503906 C 211.632812 114.539062 221.773438 129.90625 223.390625 147.648438 C 224.988281 165.195312 217.902344 181.914062 203.957031 193.523438 C 199.507812 197.140625 194.613281 199.898438 189.882812 202.558594 C 188.515625 203.332031 187.144531 204.101562 185.796875 204.894531 C 163.867188 217.667969 137.835938 232.773438 111.027344 247.941406 C 103.023438 252.257812 94.390625 254.304688 85.882812 254.304688 Z M 62.964844 165.835938 C 44.664062 177.566406 38.390625 201.679688 48.691406 220.855469 C 59.726562 241.320312 85.246094 249.070312 105.597656 238.101562 C 132.25 223.019531 158.238281 207.9375 180.132812 195.179688 C 181.53125 194.363281 182.949219 193.566406 184.367188 192.761719 C 188.890625 190.214844 193.160156 187.8125 196.824219 184.835938 C 207.832031 175.675781 213.453125 162.472656 212.199219 148.664062 C 210.921875 134.660156 202.851562 122.492188 190.054688 115.289062 C 187.992188 114.125 185.984375 112.914062 183.898438 111.660156 C 182.132812 110.597656 180.3125 109.5 178.347656 108.367188 C 176.636719 107.378906 175.566406 105.558594 175.535156 103.578125 C 175.507812 101.597656 176.527344 99.75 178.207031 98.710938 C 182.136719 96.292969 186 94.015625 190.375 91.542969 C 205.863281 83.148438 214.472656 65.941406 211.882812 48.671875 C 210.097656 35.164062 201.5 23.410156 188.863281 17.136719 C 176.371094 10.933594 162.003906 11.164062 150.445312 17.753906 C 143.347656 21.828125 136.234375 25.886719 129.125 29.945312 C 107.769531 42.144531 85.679688 54.757812 64.1875 67.601562 C 46.355469 78.328125 40.652344 92.023438 44.519531 114.867188 C 46.34375 125.441406 53.105469 134.175781 64.605469 140.816406 C 68.6875 143.105469 72.664062 145.421875 77.140625 148.074219 C 78.839844 149.082031 79.890625 150.914062 79.894531 152.894531 C 79.902344 154.875 78.863281 156.710938 77.167969 157.730469 C 72.261719 160.679688 67.800781 163.324219 62.964844 165.835938 Z M 62.964844 165.835938 "/>
<path style=" stroke:none;fill-rule:nonzero;fill:rgb(0%,0%,0%);fill-opacity:1;" d="M 104.648438 169.867188 C 103.679688 169.867188 102.710938 169.617188 101.839844 169.113281 C 100.097656 168.109375 99.027344 166.253906 99.027344 164.242188 L 99.027344 92.5 C 99.027344 90.488281 100.097656 88.632812 101.835938 87.632812 C 103.574219 86.628906 105.71875 86.628906 107.457031 87.632812 L 169.515625 123.421875 C 171.253906 124.425781 172.324219 126.277344 172.328125 128.285156 C 172.332031 130.296875 171.261719 132.148438 169.527344 133.15625 L 107.46875 169.109375 C 106.59375 169.617188 105.621094 169.867188 104.648438 169.867188 Z M 110.269531 102.230469 L 110.269531 154.496094 L 155.476562 128.304688 Z M 110.269531 102.230469 "/>
</g>
</svg>
