<?xml version="1.0" standalone="no"?>
<!DOCTYPE svg PUBLIC "-//W3C//DTD SVG 1.0//EN" "http://www.w3.org/TR/2001/REC-SVG-20010904/DTD/svg10.dtd">
<svg xmlns="http://www.w3.org/2000/svg" xmlns:xlink="http://www.w3.org/1999/xlink" id="body_1" width="102" height="102">

<g transform="matrix(0.3984375 0 0 0.3984375 0 0)">
	<g>
        <path d="M85.88281 254.30469C 66.875 254.30469 48.445312 244.09375 38.789062 226.17969C 25.671875 201.75781 33.734375 171.03125 57.152344 156.21094C 57.29297 156.125 57.433594 156.03906 57.57422 155.96875C 59.46875 154.98828 61.3125 153.97656 63.164062 152.92969C 61.796875 152.14453 60.433594 151.3711 59.05078 150.59766C 44.664062 142.29297 35.83203 130.60938 33.4375 116.76953C 30.304688 98.25781 30.3125 74.86328 58.40625 57.964844C 80.00781 45.054688 102.140625 32.414062 123.55078 20.1875C 130.65234 16.132812 137.75781 12.074219 144.86719 8C 159.69922 -0.453125 178.01562 -0.792969 193.85938 7.074219C 209.85547 15.015625 220.75 29.980469 223.00781 47.109375C 226.28516 68.9375 215.36719 90.78906 195.8164 101.38281C 194.55469 102.09766 193.32812 102.80078 192.125 103.49219C 193.27734 104.17969 194.41797 104.85156 195.57422 105.50391C 211.63281 114.53906 221.77344 129.90625 223.39062 147.64844C 224.98828 165.19531 217.90234 181.91406 203.95703 193.52344C 199.50781 197.14062 194.61328 199.89844 189.88281 202.5586C 188.51562 203.33203 187.14453 204.10156 185.79688 204.89453C 163.86719 217.66797 137.83594 232.77344 111.02734 247.9414C 103.02344 252.25781 94.390625 254.30469 85.88281 254.30469zM62.964844 165.83594C 44.664062 177.5664 38.390625 201.67969 48.691406 220.85547C 59.726562 241.32031 85.24609 249.07031 105.59766 238.10156C 132.25 223.01953 158.23828 207.9375 180.13281 195.17969C 181.53125 194.36328 182.94922 193.5664 184.36719 192.76172C 188.89062 190.21484 193.16016 187.8125 196.82422 184.83594C 207.83203 175.67578 213.45312 162.47266 212.19922 148.66406C 210.92188 134.66016 202.85156 122.49219 190.05469 115.28906C 187.99219 114.125 185.98438 112.91406 183.89844 111.66016C 182.13281 110.59766 180.3125 109.5 178.34766 108.36719C 176.63672 107.37891 175.5664 105.55859 175.53516 103.578125C 175.50781 101.59766 176.52734 99.75 178.20703 98.71094C 182.13672 96.29297 186 94.015625 190.375 91.54297C 205.86328 83.14844 214.47266 65.94141 211.88281 48.671875C 210.09766 35.164062 201.5 23.410156 188.86328 17.136719C 176.3711 10.933594 162.0039 11.164062 150.44531 17.753906C 143.34766 21.828125 136.23438 25.886719 129.125 29.945312C 107.76953 42.14453 85.67969 54.757812 64.1875 67.60156C 46.35547 78.328125 40.652344 92.02344 44.51953 114.86719C 46.34375 125.44141 53.10547 134.17578 64.60547 140.8164C 68.6875 143.10547 72.66406 145.42188 77.140625 148.07422C 78.83984 149.08203 79.890625 150.91406 79.89453 152.89453C 79.90234 154.875 78.86328 156.71094 77.16797 157.73047C 72.26172 160.67969 67.80078 163.32422 62.964844 165.83594z" stroke="none" fill="#000000" fill-rule="nonzero" />
        <path d="M104.64844 169.86719C 103.67969 169.86719 102.71094 169.61719 101.83984 169.11328C 100.09766 168.10938 99.02734 166.2539 99.02734 164.24219L99.02734 164.24219L99.02734 92.5C 99.02734 90.48828 100.09766 88.63281 101.83594 87.63281C 103.57422 86.62891 105.71875 86.62891 107.45703 87.63281L107.45703 87.63281L169.51562 123.421875C 171.2539 124.42578 172.32422 126.27734 172.32812 128.28516C 172.33203 130.29688 171.26172 132.14844 169.52734 133.15625L169.52734 133.15625L107.46875 169.10938C 106.59375 169.61719 105.62109 169.86719 104.64844 169.86719zM110.26953 102.23047L110.26953 154.4961L155.47656 128.30469z" stroke="none" fill="#000000" fill-rule="nonzero" />
	</g>
</g>
</svg>